<svg width="1041" height="400" viewBox="0 0 1041 400" fill="none" xmlns="http://www.w3.org/2000/svg">
<path d="M474.592 312.756C464.441 312.756 454.971 311.119 446.523 307.844C438.075 304.57 430.649 299.931 424.449 293.996C418.318 288.061 413.481 280.83 410.074 272.575C406.736 264.321 405.033 255.111 405.033 245.151C405.033 235.192 406.736 225.914 410.074 217.591C413.412 209.2 418.181 201.901 424.245 195.898C430.308 189.895 437.666 185.119 446.182 181.777C454.63 178.434 464.168 176.729 474.524 176.729C484.13 176.729 493.532 178.434 502.32 181.777C511.177 185.188 519.012 190.372 525.552 197.33L527.187 199.036L505.045 218.751L503.751 216.841C499.459 212.475 494.894 209.132 490.193 206.881C485.561 204.698 479.974 203.538 473.502 203.538C467.234 203.538 461.716 204.63 457.083 206.881C452.45 209.064 448.567 212.202 445.433 216.022C442.299 219.911 439.846 224.481 438.279 229.598C436.644 234.714 435.827 240.172 435.827 245.697C435.827 251.223 436.781 256.544 438.62 261.387C440.459 266.299 443.185 270.665 446.523 274.281C449.861 277.896 454.017 280.761 458.718 282.876C463.419 284.923 468.869 285.946 474.796 285.946C481.269 285.946 486.787 284.854 491.352 282.603C495.916 280.352 500.208 277.009 504.16 272.712L505.863 270.87L526.574 291.062L525.075 292.7C518.535 299.863 510.768 305.047 502.048 308.117C493.464 311.187 484.198 312.756 474.592 312.756Z" fill="#404041"/>
<path d="M600.153 312.756C589.798 312.756 580.26 310.982 571.744 307.571C563.228 304.092 555.938 299.248 550.079 293.109C544.22 286.969 539.587 279.738 536.453 271.415C533.319 263.161 531.684 254.156 531.684 244.537C531.684 234.918 533.456 225.845 536.862 217.591C540.268 209.337 545.105 202.037 551.169 195.966C557.232 189.894 564.522 184.983 572.902 181.572C581.282 178.093 590.547 176.387 600.358 176.387C612.008 176.387 622.091 178.434 630.266 182.459C638.374 186.483 645.186 191.804 650.432 198.285C655.678 204.766 659.493 212.134 661.81 220.252C664.126 228.301 665.284 236.556 665.284 244.81V255.589H562.478L562.547 255.998C562.887 260.023 563.977 263.775 565.817 267.117C568.065 271.347 571.131 274.963 574.81 277.896C578.557 280.898 582.985 283.217 587.89 284.922C592.864 286.628 598.041 287.447 603.355 287.447C610.441 287.447 616.641 285.809 621.818 282.671C627.132 279.397 632.174 274.963 636.67 269.573L638.374 267.527L660.243 284.377L658.812 286.219C644.914 303.819 625.157 312.756 600.153 312.756ZM599.881 200.059C594.294 200.059 589.117 201.082 584.484 203.129C579.851 205.175 575.832 207.904 572.63 211.179C569.427 214.521 566.839 218.205 565.135 222.298C563.773 225.368 562.955 228.438 562.615 231.439L562.547 231.849H634.422L634.354 231.439C634.013 227.483 633.264 223.799 632.106 220.388C630.675 216.295 628.495 212.748 625.702 209.678C622.908 206.676 619.298 204.288 615.074 202.583C610.782 200.946 605.672 200.059 599.881 200.059Z" fill="#404041"/>
<path d="M945.633 312.755C934.733 312.755 924.99 311.118 916.747 307.844C908.299 304.501 900.737 298.361 894.196 289.629L892.629 287.583L914.907 270.119L916.134 271.824C919.949 275.576 924.241 278.919 929.01 281.784C933.438 284.513 939.025 285.946 945.633 285.946C948.563 285.946 951.561 285.673 954.49 285.059C957.42 284.513 960.008 283.626 962.189 282.398C964.301 281.239 966.072 279.738 967.366 278.032C968.593 276.395 969.206 274.553 969.206 272.37C969.206 269.437 968.32 267.117 966.481 265.207C964.437 263.161 961.984 261.524 959.123 260.296C956.125 258.999 952.855 257.976 949.517 257.226C946.042 256.407 942.908 255.793 940.251 255.247C934.937 254.02 929.827 252.519 925.058 250.95C920.153 249.312 915.725 247.061 911.978 244.264C908.094 241.399 904.961 237.784 902.644 233.418C900.328 229.052 899.101 223.594 899.101 217.25C899.101 210.36 900.6 204.22 903.598 199.036C906.528 193.919 910.547 189.621 915.384 186.279C920.221 182.936 925.74 180.412 931.803 178.775C937.867 177.138 943.998 176.319 950.198 176.319C959.123 176.319 967.843 177.956 976.019 181.231C984.398 184.573 991.143 190.235 996.117 198.012L997.479 200.127L974.452 216.704L973.294 214.726C970.637 211.451 967.23 208.654 963.279 206.403C959.463 204.22 954.626 203.129 948.903 203.129C943.589 203.129 938.889 204.22 935.073 206.403C931.531 208.381 929.896 211.042 929.896 214.862C929.896 217.932 930.849 220.32 932.825 222.23C935.005 224.345 937.73 226.05 940.796 227.346C943.998 228.711 947.405 229.734 951.015 230.348C954.831 231.03 958.101 231.644 960.758 232.19C966.14 233.486 971.25 234.987 975.882 236.828C980.72 238.67 984.944 241.126 988.486 244.128C992.097 247.129 994.89 250.881 996.934 255.247C998.978 259.613 1000 264.866 1000 271.006C1000 278.442 998.365 284.922 995.095 290.312C991.825 295.633 987.601 299.999 982.491 303.341C977.381 306.684 971.522 309.072 965.05 310.572C958.646 312.005 952.106 312.755 945.633 312.755Z" fill="#404041"/>
<path d="M389.091 128.293H360V309.549H389.091V128.293Z" fill="#404041"/>
<path d="M812.1 312.755C802.358 312.755 794.727 311.391 789.209 308.662C783.69 305.934 779.535 302.25 776.878 297.816C774.289 293.45 772.722 288.538 772.245 283.217C771.768 278.169 771.563 272.984 771.563 267.8V151.965L800.654 146.235V179.593H835.604V204.834H800.654V259.409C800.654 262.888 800.723 266.367 800.927 269.71C801.063 272.848 801.744 275.713 802.766 278.169C803.788 280.488 805.287 282.33 807.331 283.763C809.307 285.127 812.441 285.877 816.665 285.877C819.39 285.877 822.251 285.605 825.181 285.127C827.974 284.65 830.563 283.763 832.811 282.467L836.354 280.488V307.776L835.128 308.185C831.994 309.89 827.906 311.118 823.069 311.8C818.3 312.414 814.689 312.755 812.1 312.755Z" fill="#404041"/>
<path d="M681.429 309.549V179.593L710.52 173.863V193.783L711.201 192.964C711.883 192.146 712.632 191.259 713.45 190.508C716.311 187.643 719.513 185.119 722.987 183.141C726.462 181.094 730.345 179.457 734.501 178.297C738.657 177.069 742.881 176.455 747.105 176.455C749.421 176.455 751.738 176.66 753.986 177.069L753.645 207.699L753.373 207.631C752.419 207.358 751.397 207.154 750.375 206.949C748.536 206.608 746.696 206.472 744.857 206.472C733.684 206.472 725.1 209.541 719.24 215.545C713.381 221.616 710.384 231.303 710.384 244.401V309.686H681.429V309.549Z" fill="#404041"/>
<path d="M853.318 159.469L853.386 134.706L882.477 128.976L882.409 159.537L853.318 159.469Z" fill="#404041"/>
<path d="M882.409 179.594H853.318V309.618H882.409V179.594Z" fill="#404041"/>
<path d="M99.4382 91.3132V348.708H320V91.3132H99.4382ZM303.346 332.032H116.02V107.917H303.346V332.032Z" fill="#00E4BC"/>
<path d="M261.71 51L46 96.8961L99.4388 348.635L315.149 302.739L261.71 51ZM65.6956 109.73L248.966 70.7215L295.526 289.978L112.255 328.986L65.6956 109.73Z" fill="url(#paint0_linear_30_62)"/>
<defs>
<linearGradient id="paint0_linear_30_62" x1="98.9133" y1="348.985" x2="259.046" y2="55.1774" gradientUnits="userSpaceOnUse">
<stop stop-color="#010172"/>
<stop offset="0.577133" stop-color="#2B38C2"/>
</linearGradient>
</defs>
</svg>
